<svg data-v-0dd9719b="" version="1.0" xmlns="http://www.w3.org/2000/svg" xmlns:xlink="http://www.w3.org/1999/xlink" width="100%" height="100%" viewBox="0 0 340.000000 250.000000" preserveAspectRatio="xMidYMid meet" color-interpolation-filters="sRGB" style="margin: auto;"> <rect data-v-0dd9719b="" x="0" y="0" width="100%" height="100%" fill="#fff" fill-opacity="1" class="background"></rect> <rect data-v-0dd9719b="" x="0" y="0" width="100%" height="100%" fill="url(#watermark)" fill-opacity="1" class="watermarklayer"></rect> <g data-v-0dd9719b="" fill="#562f87" class="icon-text-wrapper icon-svg-group iconsvg" transform="translate(48.88623809814453,76.91228866577148)"><g class="iconsvg-imagesvg" transform="translate(0,0)"><g><rect fill="#562f87" fill-opacity="0" stroke-width="2" x="0" y="0" width="60" height="96.17542397332736" class="image-rect"></rect> <svg x="0" y="0" width="60" height="96.17542397332736" filtersec="colorsb1196684993" class="image-svg-svg primary" style="overflow: visible;"><svg xmlns="http://www.w3.org/2000/svg" viewBox="0 0 40.371002197265625 64.71199798583984"><g><g><path fill="#562f87" d="M15.74 2.495h11.392V0H0v14.839h12.293v49.873h14.839V17.334H15.74V2.495z"></path><path fill="#009d97" d="M27.132 2.495h13.239v14.839H27.132z"></path><path fill="#4d6cb3" d="M15.74 2.495h11.392v14.839H15.74z"></path></g></g></svg></svg> <!----></g></g> <g transform="translate(67,26.936811447143555)"><g data-gra="path-name" fill-rule="" class="tp-name iconsvg-namesvg"><g transform="scale(1)"><g><path d="M17.77-37.8L4.35-37.8Q3.46-37.8 2.95-38.28 2.44-38.75 2.38-39.35 2.33-39.95 2.86-40.63 3.4-41.32 4.35-41.32L4.35-41.32 35.95-41.26Q36.67-41.2 37.06-40.63 37.44-40.07 37.44-39.53L37.44-39.53Q37.44-38.87 37.03-38.34 36.61-37.8 35.95-37.8L35.95-37.8 21.4-37.8 21.4-0.54Q21.4 0.18 20.75 0.57 20.09 0.95 19.47 0.98 18.84 1.01 18.24 0.54 17.65 0.06 17.71-0.54L17.71-0.54 17.77-37.8ZM44-11.98L44-27.43Q44-28.5 44.54-29.04 45.07-29.57 45.91-29.57L45.91-29.57Q46.62-29.51 47.1-29.04 47.58-28.56 47.58-27.43L47.58-27.43 47.58-12.88Q47.58-10.2 48.29-8.38 49.01-6.56 49.99-5.69 50.98-4.83 52.2-4.23 53.42-3.64 55.21-3.58L55.21-3.58Q56.94-3.52 58.55-4.11 60.16-4.71 61.44-5.96 62.72-7.21 63.83-9.24 64.93-11.27 64.93-13.42L64.93-13.42 64.81-27.43Q64.81-28.68 65.23-29.21 65.64-29.75 66.78-29.75L66.78-29.75Q67.55-29.69 68.06-29.19 68.57-28.68 68.57-27.43L68.57-27.43 68.57-2.15Q68.57-1.31 68.06-0.69 67.55-0.06 66.78-0.12L66.78-0.12Q66.24-0.18 65.7-0.72 65.17-1.25 65.17-2.15L65.17-2.15 65.17-4.29Q65.17-4.53 65.11-4.77 65.05-5.01 64.9-5.01 64.75-5.01 64.57-4.77L64.57-4.77 63.62-3.52Q63.2-2.98 61.98-2.18 60.76-1.37 59.26-0.63 57.77 0.12 54.97 0.06L54.97 0.06Q52.65 0 50.74-0.86 48.83-1.73 47.4-3.1 45.97-4.47 44.99-6.62 44-8.76 44-11.98L44-11.98ZM90.33-29.81Q94.56-29.81 97.54-27.69 100.52-25.58 102.01-22.21 103.5-18.84 103.5-15.02L103.5-15.02Q103.5-11.09 102.01-7.66 100.52-4.23 97.48-2.12 94.44 0 90.03 0L90.03 0Q85.86 0 82.73-2.09 79.6-4.17 77.96-7.63 76.32-11.09 76.32-15.2L76.32-15.2Q76.32-19.08 77.84-22.39 79.36-25.7 82.52-27.75 85.68-29.81 90.33-29.81L90.33-29.81ZM90.03-26.41Q86.93-26.41 84.46-25.01 81.98-23.61 80.55-20.93 79.12-18.24 79.12-14.61L79.12-14.61Q79.12-10.85 80.73-8.23 82.34-5.6 84.9-4.29 87.47-2.98 90.39-2.98L90.39-2.98Q92.83-2.98 95.19-4.38 97.54-5.78 99-8.35 100.46-10.91 100.46-14.25L100.46-14.25Q100.46-19.91 97.57-23.16 94.68-26.41 90.03-26.41L90.03-26.41ZM117.52-13.77L120.62-6.62Q121.51-4.53 121.63-4.47 121.75-4.41 121.78-4.38 121.81-4.35 121.96-4.47 122.11-4.59 122.58-5.72L122.58-5.72 131.88-27.49Q132.54-29.1 132.93-29.3 133.32-29.51 133.97-29.54 134.63-29.57 135.28-28.98 135.94-28.38 135.91-28.14 135.88-27.9 135.82-27.84L135.82-27.84 133.79-23.19 127.29-8.29Q125.03-3.04 124.4-2.03 123.78-1.01 123.18-0.69 122.58-0.36 121.99-0.36L121.99-0.36Q121.21-0.3 120.53-0.72 119.84-1.13 119.51-1.58 119.19-2.03 116.08-8.7L116.08-8.7 107.86-26.47Q107.32-27.61 107.35-28.05 107.38-28.5 107.89-28.92 108.39-29.33 109.23-29.39L109.23-29.39Q109.71-29.39 110.18-29.13 110.66-28.86 111.08-27.9L111.08-27.9 117.52-13.77ZM139.28-2.03L139.34-28.5Q139.34-29.21 139.93-29.66 140.53-30.11 141.1-30.17 141.66-30.23 142.35-29.81 143.03-29.39 143.03-28.5L143.03-28.5 143.09-2.03Q143.09-1.25 142.44-0.83 141.78-0.42 141.07-0.48L141.07-0.48Q140.41-0.54 139.81-0.95 139.22-1.37 139.28-2.03L139.28-2.03ZM141.31-35.95Q140.29-35.95 139.55-36.7 138.8-37.44 138.8-38.52L138.8-38.52Q138.8-39.53 139.55-40.27 140.29-41.02 141.31-41.02L141.31-41.02Q142.32-41.02 143.06-40.27 143.81-39.53 143.81-38.52L143.81-38.52Q143.81-37.44 143.06-36.7 142.32-35.95 141.31-35.95L141.31-35.95ZM167.96-16.63L162.53-16.4Q158.36-16.22 156.3-15.29 154.24-14.37 153.14-13.06 152.04-11.75 152.01-10.11 151.98-8.47 152.45-7.45L152.45-7.45Q152.93-6.32 154.24-5.22 155.55-4.11 157.88-3.61 160.21-3.1 162.83-3.28L162.83-3.28Q164.86-3.4 166.53-3.94 168.19-4.47 169.6-5.43 171-6.38 171.95-7.66 172.9-8.94 173.23-9.93 173.56-10.91 173.77-12.19 173.98-13.47 174.04-15.65 174.1-17.83 173.98-17.95 173.86-18.07 173.83-17.98 173.8-17.89 171.89-17.17L171.89-17.17Q171.47-16.99 170.46-16.87L170.46-16.87 167.96-16.63ZM177.2-7.69Q177.14-5.78 177.26-4.35L177.26-4.35Q177.38-3.04 177.5-2.5L177.5-2.5Q177.67-1.73 177.56-1.19L177.56-1.19Q177.32-0.66 177.02-0.42L177.02-0.42Q176.54-0.06 176.01-0.12L176.01-0.12Q175.41-0.12 174.93-0.48L174.93-0.48Q174.51-0.72 174.22-1.43L174.22-1.43Q173.92-2.15 173.92-2.8L173.92-2.8 173.98-4.17 173.98-4.47Q173.98-4.71 173.92-4.77L173.92-4.77 173.62-4.95 173.56-4.95Q173.38-4.95 172.96-4.53L172.96-4.53Q172.37-3.76 172.01-3.46L172.01-3.46 170.76-2.56Q169.98-2.03 168.79-1.43L168.79-1.43Q167.84-0.95 165.93-0.48L165.93-0.48Q164.02 0 161.46 0L161.46 0Q158.48 0 155.97-0.78L155.97-0.78Q153.17-1.67 151.62-3.04L151.62-3.04Q149.77-4.59 149.18-6.14L149.18-6.14Q148.46-7.75 148.46-9.78L148.46-9.78Q148.46-11.21 148.94-12.52L148.94-12.52Q149.41-13.89 150.13-14.91L150.13-14.91Q151.02-16.04 152.75-17.23L152.75-17.23Q154.66-18.48 156.75-18.9L156.75-18.9Q159.01-19.38 159.91-19.44L159.91-19.44 165.03-19.62Q167.42-19.68 169.15-19.91L169.15-19.91Q170.28-19.97 171.53-20.33L171.53-20.33Q172.43-20.63 173.14-21.4L173.14-21.4Q173.98-22.24 173.98-23.13L173.98-23.13Q173.98-23.97 172.85-24.98L172.85-24.98Q171.3-26.11 168.73-26.8 166.17-27.49 164.56-27.49L164.56-27.49Q158.12-27.49 154.96-24.09L154.96-24.09 153.59-22.54Q153.29-22.12 152.87-21.94L152.87-21.94Q152.45-21.7 151.92-21.7L151.92-21.7 151.8-21.7Q151.38-21.7 150.84-22.12L150.84-22.12Q150.19-22.66 150.19-23.49L150.19-23.49Q150.19-24.27 151.44-25.76L151.44-25.76Q156.69-30.65 163.31-30.65L163.31-30.65Q167.06-30.65 170.31-29.63 173.56-28.62 175.53-26.65 177.5-24.68 177.5-21.88L177.5-21.88 177.44-16.04 177.2-7.69Z" transform="translate(-2.375689744949341, 41.31999969482422)"></path></g> <!----> <!----> <!----> <!----> <!----> <!----> <!----></g></g> <!----></g></g><defs v-gra="od"></defs></svg>